<svg width="999" height="422" viewBox="0 0 999 422" fill="none" xmlns="http://www.w3.org/2000/svg">
<g id="undraw_code_thinking_1jeh (1) 1">
<g clip-path="url(#clip0)">
<g id="me">
<path id="Vector" d="M71.61 366.294L48.7041 364.742L56.3394 399.664L82.2992 388.799L71.61 366.294Z" fill="#FFB9B9"/>
<path id="Vector_2" d="M281.582 301.107L228.135 248.337L197.593 272.394L137.274 346.117L144.146 356.981L217.444 306.539L267.074 372.502L314.413 348.445L281.582 301.107Z" fill="#2F2E41"/>
<path id="Vector_3" opacity="0.1" d="M281.582 301.107L228.135 248.337L197.593 272.394L137.274 346.117L144.146 356.981L217.444 306.539L267.074 372.502L314.413 348.445L281.582 301.107Z" fill="black"/>
<path id="Vector_4" d="M286.163 336.029L279.291 341.461L223.553 322.06L210.573 316.628L184.613 322.06C184.613 322.06 184.613 300.331 209.046 301.107L234.243 307.315L264.021 309.644L286.163 336.029Z" fill="#FFB9B9"/>
<path id="Vector_5" d="M335.793 393.456L318.995 404.32H299.143L206.755 369.398L71.61 394.231L67.7919 364.742L191.485 309.644L299.907 346.117L335.793 393.456Z" fill="#2F2E41"/>
<path id="Vector_6" d="M227.371 255.321L215.918 257.649L213.422 254.69C211.446 252.347 210.194 249.464 209.823 246.401C209.452 243.338 209.979 240.232 211.337 237.472V237.472L243.405 194.791C243.405 194.791 252.567 173.838 267.075 182.374C281.582 190.91 254.858 204.879 254.858 204.879L238.824 230.488L240.351 243.681L227.371 255.321Z" fill="#FFB9B9"/>
<path id="Vector_7" d="M299.907 204.879C316.352 204.879 329.684 191.329 329.684 174.614C329.684 157.899 316.352 144.348 299.907 144.348C283.461 144.348 270.129 157.899 270.129 174.614C270.129 191.329 283.461 204.879 299.907 204.879Z" fill="#FFB9B9"/>
<path id="Vector_8" d="M286.545 196.731L300.288 230.1L333.12 216.131C333.12 216.131 322.431 189.746 322.431 188.97C322.431 188.194 286.545 196.731 286.545 196.731Z" fill="#FFB9B9"/>
<path id="Vector_9" d="M376.955 295.45C376.954 313.716 374.123 331.867 368.564 349.237L366.334 356.206L355.645 405.872L344.192 408.976L335.793 398.112L318.995 385.695L306.778 365.518L296.303 347.778L293.035 342.237L281.582 284.034L238.06 259.201L223.553 256.873L226.607 248.337L239.587 230.488L252.567 228.936L256.385 225.832L259.439 227.384L271.656 220.4L275.473 221.952L297.799 224.062L311.36 221.176L330.86 210.536L338.847 211.863L366.334 235.144C373.361 254.448 376.957 274.867 376.955 295.45V295.45Z" fill="#575A89"/>
<path id="Shoe" d="M55.7501 378.063C55.7501 378.063 62.5931 366.215 59.7051 364.831C56.8171 363.446 44.5522 357.926 44.5522 357.926L26.5652 351.823C26.5652 351.823 0.622213 312.37 0.0398747 346.669C-0.542464 380.968 18.9244 389.221 18.9244 389.221C18.9244 389.221 36.2753 427.436 46.1139 421.348C55.9526 415.259 65.803 394.582 65.803 394.582C65.803 394.582 48.0684 384.825 55.7501 378.063Z" fill="#2F2E41"/>
<path id="Vector_10" opacity="0.1" d="M368.243 287.81L339.491 307.268L296.576 347.069L293.338 341.512L284.258 294.815H286.528L309.984 250.453L368.243 287.81Z" fill="black"/>
<path id="Vector_11" d="M309.691 245.763L286.117 290.04H277.752L272.429 305.576L260.262 308.684L292.961 345.193L339.347 302.469L368.243 283.049L309.691 245.763Z" fill="#575A89"/>
<path id="Vector_12" d="M276.22 150.642L272.969 151.918C272.469 151.573 272.041 151.129 271.711 150.613C271.381 150.097 271.156 149.519 271.048 148.913C270.94 148.307 270.951 147.685 271.082 147.084C271.212 146.482 271.459 145.913 271.808 145.41L265.8 145.124C269.657 139.884 274.561 135.54 280.187 132.378C285.814 129.217 292.034 127.309 298.437 126.783C304.84 126.257 311.28 127.123 317.33 129.325C323.38 131.527 328.903 135.014 333.533 139.555C333.807 138.595 336.789 140.464 338.006 142.36C338.416 140.796 341.212 148.355 342.201 153.698C342.658 151.919 344.419 154.791 342.877 157.547C343.854 157.401 344.295 159.951 343.539 161.372C344.608 160.86 344.428 163.904 343.268 165.938C344.794 165.799 331.237 187.259 325.749 199.799C324.155 192.331 322.363 184.466 317.224 178.902C316.35 177.957 315.394 177.095 314.438 176.235L309.273 171.585C303.267 166.178 297.803 159.504 289.801 157.483C284.302 156.094 280.826 155.78 283.822 149.46C281.115 150.613 278.586 152.326 275.855 153.397C275.891 152.514 276.273 151.526 276.22 150.642Z" fill="#2F2E41"/>
<path id="Vector_13" d="M314.714 181.977C317.773 181.977 320.252 179.667 320.252 176.818C320.252 173.968 317.773 171.659 314.714 171.659C311.656 171.659 309.177 173.968 309.177 176.818C309.177 179.667 311.656 181.977 314.714 181.977Z" fill="#FFB9B9"/>
</g>
<g id="BOXES3">
<path id="Vector_14" d="M190.526 56.0096H164.684V82.2744H190.526V56.0096Z" fill="#00C568"/>
<path id="Vector_15" d="M206.215 67.2659H174.836V35.3731H206.215V67.2659ZM176.201 65.8793H204.851V36.7597H176.201V65.8793Z" fill="#3F3D56"/>
</g>
<g id="BOXES1">
<path id="Vector_16" d="M75.0643 162.443L67.9688 137.187L43.1204 144.399L50.2159 169.654L75.0643 162.443Z" fill="#00C568"/>
<path id="vector" d="M68.723 180.867L60.107 150.2L90.2801 141.443L98.8961 172.11L68.723 180.867ZM61.7935 151.152L69.6603 179.153L97.2096 171.157L89.3428 143.157L61.7935 151.152Z" fill="#3F3D56"/>
</g>
<g id="BOXES2">
<path id="Vector_17" d="M68.6423 44.8159L86.2869 25.6268L67.4069 7.69324L49.7622 26.8824L68.6423 44.8159Z" fill="#00C568"/>
<path id="Vector_18" d="M49.838 48.7807L71.2636 25.4796L94.1894 47.256L72.7638 70.5571L49.838 48.7807ZM71.3289 27.4395L51.7663 48.7144L72.6985 68.5972L92.2611 47.3223L71.3289 27.4395Z" fill="#3F3D56"/>
</g>
<g id="Computer">
<path id="Vector_19" d="M947.125 5.02999H707.011V0H598.134V5.02999H357.029C354.896 5.02999 352.784 5.45697 350.814 6.28657C348.843 7.11617 347.053 8.33213 345.544 9.86502C344.036 11.3979 342.84 13.2177 342.024 15.2206C341.207 17.2234 340.787 19.37 340.787 21.5378V355.711C340.787 357.879 341.207 360.026 342.024 362.029C342.84 364.032 344.036 365.851 345.544 367.384C347.053 368.917 348.843 370.133 350.814 370.963C352.784 371.792 354.896 372.219 357.029 372.219H947.125C951.433 372.219 955.564 370.48 958.61 367.384C961.656 364.288 963.367 360.09 963.367 355.711V21.5378C963.367 19.37 962.947 17.2234 962.131 15.2206C961.315 13.2177 960.118 11.3979 958.61 9.86502C957.102 8.33213 955.312 7.11617 953.341 6.28657C951.37 5.45697 949.258 5.02999 947.125 5.02999V5.02999Z" fill="#3F3D56"/>
<path id="Vector_20" d="M941.592 34.2039H362.563V366.183H941.592V34.2039Z" fill="#00C568"/>
<path id="Vector_21" d="M651.582 25.15C654.862 25.15 657.521 22.4475 657.521 19.114C657.521 15.7804 654.862 13.078 651.582 13.078C648.303 13.078 645.644 15.7804 645.644 19.114C645.644 22.4475 648.303 25.15 651.582 25.15Z" fill="#00C568"/>
<path id="Vector_22" opacity="0.1" d="M776 366.184H362.563V34.2042L776 366.184Z" fill="black"/>
<path id="Vector_23" d="M453.163 341.341C483.903 341.341 508.822 316.014 508.822 284.772C508.822 253.53 483.903 228.203 453.163 228.203C422.424 228.203 397.505 253.53 397.505 284.772C397.505 316.014 422.424 341.341 453.163 341.341Z" fill="#F2F2F2"/>
<path id="Vector_24" d="M465.553 327.289C451.86 327.289 438.475 323.162 427.09 315.43C415.704 307.698 406.83 296.709 401.59 283.851C396.35 270.993 394.979 256.844 397.651 243.195C400.322 229.545 406.916 217.007 416.598 207.166C426.281 197.325 438.617 190.623 452.047 187.908C465.477 185.193 479.397 186.586 492.048 191.912C504.699 197.238 515.511 206.257 523.119 217.829C530.726 229.401 534.787 243.005 534.787 256.923C534.766 275.578 527.465 293.464 514.486 306.656C501.507 319.848 483.909 327.268 465.553 327.289ZM465.553 187.476C452.039 187.476 438.829 191.549 427.592 199.18C416.356 206.81 407.598 217.657 402.426 230.346C397.255 243.036 395.902 257 398.538 270.471C401.175 283.942 407.682 296.317 417.238 306.029C426.794 315.741 438.969 322.355 452.223 325.035C465.478 327.715 479.216 326.339 491.702 321.083C504.187 315.827 514.858 306.926 522.366 295.505C529.874 284.085 533.882 270.658 533.882 256.923C533.861 238.51 526.656 220.858 513.846 207.839C501.037 194.82 483.669 187.496 465.553 187.476V187.476Z" fill="#3F3D56"/>
<path id="Vector_25" d="M840.773 213.243H786.686V224.73H840.773V213.243Z" fill="#3F3D56"/>
<path id="Vector_26" d="M906.163 123.809H721.296V128.732H906.163V123.809Z" fill="#3F3D56"/>
<path id="Vector_27" d="M906.163 139.399H721.296V144.322H906.163V139.399Z" fill="#3F3D56"/>
<path id="Vector_28" d="M906.163 154.988H721.296V159.911H906.163V154.988Z" fill="#3F3D56"/>
<path id="Vector_29" d="M906.163 170.577H721.296V175.5H906.163V170.577Z" fill="#3F3D56"/>
<path id="Vector_30" d="M906.163 186.167H721.296V191.09H906.163V186.167Z" fill="#3F3D56"/>
<path id="Vector_31" d="M906.163 40.9391H883.559V63.913H906.163V40.9391Z" fill="#F2F2F2"/>
<path id="Vector_32" d="M916.657 74.5794H889.21V46.6825H916.657V74.5794ZM890.403 73.3666H915.464V47.8955H890.403V73.3666Z" fill="#3F3D56"/>
<path id="Vector_33" d="M979.625 360.147H923.116V356.009C923.116 355.901 923.095 355.795 923.054 355.695C923.014 355.596 922.954 355.505 922.879 355.429C922.804 355.353 922.715 355.292 922.617 355.251C922.52 355.21 922.415 355.189 922.309 355.189H902.934C902.828 355.189 902.723 355.21 902.625 355.251C902.527 355.292 902.438 355.353 902.363 355.429C902.288 355.505 902.229 355.596 902.188 355.695C902.147 355.795 902.127 355.901 902.127 356.009V360.147H890.017V356.009C890.017 355.901 889.996 355.795 889.956 355.695C889.915 355.596 889.856 355.505 889.781 355.429C889.706 355.353 889.617 355.292 889.519 355.251C889.421 355.21 889.316 355.189 889.21 355.189H869.835C869.729 355.189 869.624 355.21 869.526 355.251C869.429 355.292 869.34 355.353 869.265 355.429C869.19 355.505 869.13 355.596 869.09 355.695C869.049 355.795 869.028 355.901 869.028 356.009V360.147H856.919V356.009C856.919 355.901 856.898 355.795 856.858 355.695C856.817 355.596 856.757 355.505 856.683 355.429C856.608 355.353 856.519 355.292 856.421 355.251C856.323 355.21 856.218 355.189 856.112 355.189H836.737C836.631 355.189 836.526 355.21 836.428 355.251C836.33 355.292 836.241 355.353 836.166 355.429C836.091 355.505 836.032 355.596 835.991 355.695C835.951 355.795 835.93 355.901 835.93 356.009V360.147H823.821V356.009C823.821 355.901 823.8 355.795 823.759 355.695C823.719 355.596 823.659 355.505 823.584 355.429C823.509 355.353 823.42 355.292 823.322 355.251C823.224 355.21 823.119 355.189 823.013 355.189H803.639C803.533 355.189 803.428 355.21 803.33 355.251C803.232 355.292 803.143 355.353 803.068 355.429C802.993 355.505 802.933 355.596 802.893 355.695C802.852 355.795 802.831 355.901 802.831 356.009V360.147H790.722V356.009C790.722 355.901 790.701 355.795 790.661 355.695C790.62 355.596 790.561 355.505 790.486 355.429C790.411 355.353 790.322 355.292 790.224 355.251C790.126 355.21 790.021 355.189 789.915 355.189H770.54C770.434 355.189 770.329 355.21 770.231 355.251C770.133 355.292 770.044 355.353 769.969 355.429C769.894 355.505 769.835 355.596 769.794 355.695C769.754 355.795 769.733 355.901 769.733 356.009V360.147H757.624V356.009C757.624 355.901 757.603 355.795 757.562 355.695C757.522 355.596 757.462 355.505 757.387 355.429C757.312 355.353 757.223 355.292 757.125 355.251C757.027 355.21 756.922 355.189 756.816 355.189H737.442C737.336 355.189 737.231 355.21 737.133 355.251C737.035 355.292 736.946 355.353 736.871 355.429C736.796 355.505 736.737 355.596 736.696 355.695C736.655 355.795 736.634 355.901 736.634 356.009V360.147H724.525V356.009C724.525 355.901 724.504 355.795 724.464 355.695C724.423 355.596 724.364 355.505 724.289 355.429C724.214 355.353 724.125 355.292 724.027 355.251C723.929 355.21 723.824 355.189 723.718 355.189H571.95C571.844 355.189 571.739 355.21 571.641 355.251C571.543 355.292 571.454 355.353 571.379 355.429C571.304 355.505 571.244 355.596 571.204 355.695C571.163 355.795 571.142 355.901 571.142 356.009V360.147H559.033V356.009C559.033 355.901 559.012 355.795 558.972 355.695C558.931 355.596 558.872 355.505 558.797 355.429C558.722 355.353 558.633 355.292 558.535 355.251C558.437 355.21 558.332 355.189 558.226 355.189H538.851C538.745 355.189 538.64 355.21 538.542 355.251C538.444 355.292 538.355 355.353 538.28 355.429C538.205 355.505 538.146 355.596 538.105 355.695C538.065 355.795 538.044 355.901 538.044 356.009V360.147H525.935V356.009C525.935 355.901 525.914 355.795 525.873 355.695C525.833 355.596 525.773 355.505 525.698 355.429C525.623 355.353 525.534 355.292 525.436 355.251C525.339 355.21 525.233 355.189 525.127 355.189H505.753C505.647 355.189 505.542 355.21 505.444 355.251C505.346 355.292 505.257 355.353 505.182 355.429C505.107 355.505 505.048 355.596 505.007 355.695C504.966 355.795 504.946 355.901 504.946 356.009V360.147H492.836V356.009C492.836 355.901 492.815 355.795 492.775 355.695C492.734 355.596 492.675 355.505 492.6 355.429C492.525 355.353 492.436 355.292 492.338 355.251C492.24 355.21 492.135 355.189 492.029 355.189H472.654C472.548 355.189 472.443 355.21 472.345 355.251C472.248 355.292 472.158 355.353 472.084 355.429C472.009 355.505 471.949 355.596 471.909 355.695C471.868 355.795 471.847 355.901 471.847 356.009V360.147H459.738V356.009C459.738 355.901 459.717 355.795 459.677 355.695C459.636 355.596 459.576 355.505 459.501 355.429C459.427 355.353 459.338 355.292 459.24 355.251C459.142 355.21 459.037 355.189 458.931 355.189H439.556C439.45 355.189 439.345 355.21 439.247 355.251C439.149 355.292 439.06 355.353 438.985 355.429C438.91 355.505 438.851 355.596 438.81 355.695C438.77 355.795 438.749 355.901 438.749 356.009V360.147H426.64V356.009C426.64 355.901 426.619 355.795 426.578 355.695C426.537 355.596 426.478 355.505 426.403 355.429C426.328 355.353 426.239 355.292 426.141 355.251C426.043 355.21 425.938 355.189 425.832 355.189H406.458C406.352 355.189 406.247 355.21 406.149 355.251C406.051 355.292 405.962 355.353 405.887 355.429C405.812 355.505 405.752 355.596 405.712 355.695C405.671 355.795 405.65 355.901 405.65 356.009V360.147H393.541V356.009C393.541 355.901 393.52 355.795 393.48 355.695C393.439 355.596 393.38 355.505 393.305 355.429C393.23 355.353 393.141 355.292 393.043 355.251C392.945 355.21 392.84 355.189 392.734 355.189H373.359C373.253 355.189 373.148 355.21 373.05 355.251C372.952 355.292 372.863 355.353 372.788 355.429C372.713 355.505 372.654 355.596 372.613 355.695C372.573 355.795 372.552 355.901 372.552 356.009V360.147H335.417C330.279 360.147 325.351 362.222 321.717 365.915C318.084 369.608 316.042 374.617 316.042 379.839V388.743C316.042 393.966 318.084 398.975 321.717 402.668C325.351 406.361 330.279 408.435 335.417 408.435H979.625C984.764 408.435 989.692 406.361 993.325 402.668C996.959 398.975 999 393.966 999 388.743V379.839C999 374.617 996.959 369.608 993.325 365.915C989.692 362.222 984.764 360.147 979.625 360.147V360.147Z" fill="#3F3D56"/>
</g>
</g>
</g>
<defs>
<clipPath id="clip0">
<rect width="999" height="422" fill="white"/>
</clipPath>
</defs>
</svg>
